<svg xmlns="http://www.w3.org/2000/svg" viewBox="0 0 36 36"><path fill="#292f33" d="M18.011 34.975l-.052.016c.018-.068.042-.19.042-.383a3.51 3.51 0 0 0-.199-.95c-.043-.081-.09-.139-.194-.11-.079.022-.685.326-1.072.341-.719.027-1.066-.618-1.066-.618l-.716.413c-.318.185-.687.462-.959.627-.232.141-.497.208-.771.243s-.497.023-.563.029-.621-.061-.641.488l.003.127-.054-.026-.052.202c-.004.033-.024.052.046.096s.378.176.77.274 1.028.243 1.519.243.909-.098 1.151-.156.763-.169.813-.146.116.191.173.243 1.61-.081 1.721-.104.146-.119.146-.162v-.649c.002-.027-.021-.045-.045-.038zm10.947-3.752l-.504-.429c-.019-.016-.048-.011-.059.012l-.022.051c-.041-.059-.12-.158-.269-.285-.235-.2-.777-.454-.868-.473s-.167-.022-.213.077c-.035.076-.199.746-.444 1.056-.454.575-1.184.418-1.184.418l-.153.828c-.067.368-.096.838-.148 1.158-.044.273-.167.523-.322.758s-.31.4-.35.456-.457.441-.045.82l.101.081-.055.025.122.174c.022.025.025.053.104.028s.386-.177.721-.416.868-.637 1.192-1.018.524-.77.64-.996.373-.703.424-.727.224.036.303.026 1.001-1.302 1.057-1.403.005-.193-.028-.221z"/><path fill="#f9ca55" d="M19.3 12.243l3.109 3.121c.251 1.223.614 2.606.52 3.454-.068.615.376 1.298.551 1.583.218.354.781.898 1.141.86.224-.023.567-.43.384-.636-.357-.4-.298-1.009-.522-1.559-.449-1.105-.045-3.194-.661-4.563-.256-.567-.733-1.693-2.824-3.626-.511.462-1.698 1.366-1.698 1.366z"/><path fill="#2a6797" d="M16.062 34.203c-1.266.109-1.853-.233-1.721-.416.165-.228.128-.397.13-.536C14.499 30.81 14 27.26 14 27.26a3.64 3.64 0 0 1 .312-1.562c.778-1.883 3.951-7.69 3.951-7.69a2 2 0 0 1 2.729-.744c.959.548 1.122 1.405.744 2.729-.715 2.508-2.965 5.602-3.903 7.477.224 2.121-.174 3.853.035 5.857.03.288-.54.767-1.806.876z"/><path fill="#4289c1" d="M26.797 31.931c-.364.553-.97.942-1.598.838-1.269-1.924-4.955-5.321-4.955-5.321-.241-.25-.562-.587-.86-1.341-.748-1.895-2.498-8.277-2.498-8.277a2 2 0 0 1 1.446-2.43c1.07-.272 1.783.232 2.43 1.446 1.227 2.301 1.757 6.09 2.384 8.09 1.87 1.568 2.383 3.603 4.275 5.151-.065.857-.26 1.291-.624 1.844z"/><g fill="#ffdc5d"><path d="M18.604 1.418c-1.616-.481-3.893.53-4.11 2.372-.303 2.57 1.323 4.585 2.901 4.276 1.654-.324 2.648-.782 3.177-2.559s-.352-3.608-1.968-4.089z"/><path d="M20.165 5.988c2.045-2.867-3.411-2.136-3.411-2.136-1.034.127-.172 1.793-.579 2.778-.279.682 1.16.907 1.16.907s.646-.065.748.716l.001.007c.025.199.024.438-.042.763-.329 1.61 1.862 2.392 2.19.779.13-.638.012-1.18-.124-1.677l-.013-.045c-.205-.74-.435-1.383.07-2.092z"/></g><path fill="#ffac33" d="M20.616 1.791c-.861-.977-3.527-1.676-5.056-.215-1.154-.1-1.497 1.019-1.347 1.633.12.49 1.352.514 1.739 1.431.193-.255.207-.744.139-.999.421.341.336 1.339 1.92 1.85 1.532.494 1.382 1.822 1.382 1.822s.747-.435 1.235-1.109c.934-1.286.937-3.336-.012-4.413z"/><path fill="#fa743e" d="M23 20s0 1-2 1h-4.898c1-4.578-.094-5.84.241-8.581.361-2.954 2.287-4.771 3.475-4.34 1.822.661 2.693 2.641 2.932 5.858L23 20z"/><path fill="#ffdc5d" d="M17.75 11.792l-.479 4.625c-.833 1.021-1.722 2.24-2.479 2.729-.549.354-.811 1.174-.927 1.507-.144.414-.213 1.238.057 1.507.169.168.73.177.776-.11.09-.559.626-.917.927-1.467.604-1.104 2.583-2.167 3.292-3.584.294-.588.896-1.729 1.083-4.729-.72-.11-2.25-.478-2.25-.478z"/></svg>